<?xml version="1.0" standalone="no"?>
<!DOCTYPE svg PUBLIC "-//W3C//DTD SVG 20010904//EN"
 "http://www.w3.org/TR/2001/REC-SVG-20010904/DTD/svg10.dtd">
<svg version="1.0" xmlns="http://www.w3.org/2000/svg"
 width="700.000000pt" height="700.000000pt" viewBox="0 0 700.000000 700.000000"
 preserveAspectRatio="xMidYMid meet">
<metadata>
Created by potrace 1.14, written by Peter Selinger 2001-2017
</metadata>
<g transform="translate(0.000000,700.000000) scale(0.100000,-0.100000)"
fill="#000000" stroke="none">
<path d="M3295 6990 c-730 -45 -1414 -309 -1982 -765 -68 -54 -123 -101 -123
-105 0 -4 369 -284 820 -621 450 -338 819 -617 820 -621 0 -4 -23 -20 -52 -34
-240 -122 -500 -382 -622 -622 -14 -29 -30 -52 -34 -52 -4 1 -283 370 -621
820 -337 451 -617 820 -621 820 -4 0 -51 -55 -105 -122 -419 -523 -675 -1143
-750 -1813 -23 -200 -23 -550 0 -750 63 -567 250 -1083 562 -1553 93 -140 278
-382 293 -382 4 0 284 369 621 820 338 450 617 819 621 820 4 0 20 -23 34 -52
119 -235 388 -504 622 -622 28 -14 52 -30 52 -34 -1 -4 -370 -283 -820 -621
-451 -337 -820 -617 -820 -621 0 -4 54 -50 119 -103 832 -665 1898 -916 2940
-691 418 90 813 258 1179 501 140 93 382 278 382 293 0 4 -369 284 -820 621
-450 338 -819 617 -820 621 0 4 23 20 52 34 239 121 501 383 622 622 14 29 30
52 34 52 4 -1 283 -370 621 -820 337 -451 617 -820 621 -820 15 0 206 249 296
385 351 533 540 1111 573 1751 44 856 -226 1690 -764 2362 -54 67 -101 122
-105 122 -4 0 -284 -369 -621 -820 -338 -450 -617 -819 -621 -820 -4 0 -20 23
-34 52 -122 240 -382 500 -622 622 -29 14 -52 30 -52 34 1 4 370 283 820 621
451 337 820 617 820 621 0 15 -250 207 -390 299 -628 414 -1385 617 -2125 571z
m445 -2196 c245 -43 509 -182 691 -363 136 -136 256 -331 318 -517 87 -260 87
-568 0 -828 -131 -392 -443 -704 -835 -835 -258 -87 -570 -87 -828 0 -392 131
-704 443 -835 835 -87 259 -87 569 -1 826 187 557 719 928 1295 902 61 -3 148
-12 195 -20z"/>
<path d="M3358 4360 c-211 -38 -403 -152 -535 -316 -279 -346 -251 -843 63
-1158 367 -366 966 -334 1291 70 73 90 135 211 165 321 31 112 31 334 0 446
-82 298 -324 540 -617 618 -89 23 -287 34 -367 19z"/>
</g>
</svg>
